<svg width="33" height="32" viewBox="0 0 33 32" fill="none" xmlns="http://www.w3.org/2000/svg">
<path fill-rule="evenodd" clip-rule="evenodd" d="M13.2466 8.72656H20.5266C22.5319 8.72656 24.1586 10.3519 24.1586 12.3599V19.6399C24.1586 21.6452 22.5333 23.2719 20.5253 23.2719H13.2466C11.2399 23.2719 9.61328 21.6466 9.61328 19.6386V12.3599C9.61328 10.3532 11.2399 8.72656 13.2466 8.72656Z" stroke="#CBEDEF" stroke-width="2" stroke-linecap="round" stroke-linejoin="round"/>
<path d="M20.8864 11.9333C20.8491 11.9333 20.8197 11.964 20.8197 12C20.8197 12.036 20.8491 12.0667 20.8864 12.0667C20.9237 12.0667 20.9531 12.0373 20.9531 12C20.9531 11.964 20.9224 11.9333 20.8864 11.9333" stroke="#CBEDEF" stroke-width="2" stroke-linecap="round" stroke-linejoin="round"/>
<path d="M18.7724 14.1146C19.8137 15.156 19.8137 16.844 18.7724 17.8853C17.731 18.9266 16.043 18.9266 15.0017 17.8853C13.9604 16.844 13.9604 15.156 15.0017 14.1146C16.043 13.0733 17.731 13.0733 18.7724 14.1146" stroke="#CBEDEF" stroke-width="2" stroke-linecap="round" stroke-linejoin="round"/>
<path fill-rule="evenodd" clip-rule="evenodd" d="M10.8867 4H22.8921C26.2027 4 28.8867 6.684 28.8867 9.99467V22.0067C28.8867 25.316 26.2027 28 22.8921 28H10.8814C7.57072 28 4.88672 25.316 4.88672 22.0053V10C4.88672 6.68667 7.57339 4 10.8867 4V4Z" stroke="#CBEDEF" stroke-width="2" stroke-linecap="round" stroke-linejoin="round"/>
</svg>
