<svg width="24" height="24" viewBox="0 0 24 24" fill="none" xmlns="http://www.w3.org/2000/svg">
<path fill-rule="evenodd" clip-rule="evenodd" d="M9.26992 6.54492H14.7299C16.2339 6.54492 17.4539 7.76392 17.4539 9.26992V14.7299C17.4539 16.2339 16.2349 17.4539 14.7289 17.4539H9.26992C7.76492 17.4539 6.54492 16.2349 6.54492 14.7289V9.26992C6.54492 7.76492 7.76492 6.54492 9.26992 6.54492Z" stroke="#956AA7" stroke-width="1.5" stroke-linecap="round" stroke-linejoin="round"/>
<path d="M15 8.95C14.972 8.95 14.95 8.973 14.95 9C14.95 9.027 14.972 9.05 15 9.05C15.028 9.05 15.05 9.028 15.05 9C15.05 8.973 15.027 8.95 15 8.95" stroke="#956AA7" stroke-width="1.5" stroke-linecap="round" stroke-linejoin="round"/>
<path d="M13.4137 10.586C14.1947 11.367 14.1947 12.633 13.4137 13.414C12.6327 14.195 11.3668 14.195 10.5857 13.414C9.80475 12.633 9.80475 11.367 10.5857 10.586C11.3668 9.80499 12.6327 9.80499 13.4137 10.586" stroke="#956AA7" stroke-width="1.5" stroke-linecap="round" stroke-linejoin="round"/>
<path fill-rule="evenodd" clip-rule="evenodd" d="M7.5 3H16.504C18.987 3 21 5.013 21 7.496V16.505C21 18.987 18.987 21 16.504 21H7.496C5.013 21 3 18.987 3 16.504V7.5C3 5.015 5.015 3 7.5 3V3Z" stroke="#956AA7" stroke-width="1.5" stroke-linecap="round" stroke-linejoin="round"/>
</svg>
