<svg width="33" height="32" viewBox="0 0 33 32" fill="none" xmlns="http://www.w3.org/2000/svg">
<path fill-rule="evenodd" clip-rule="evenodd" d="M10.8867 4H22.8921C26.2027 4 28.8867 6.684 28.8867 9.99467V22.0067C28.8867 25.316 26.2027 28 22.8921 28H10.8814C7.57072 28 4.88672 25.316 4.88672 22.0053V10C4.88672 6.68667 7.57339 4 10.8867 4V4Z" stroke="#CBEDEF" stroke-width="2" stroke-linecap="round" stroke-linejoin="round"/>
<path d="M11.7135 14.8001V22.0001" stroke="#CBEDEF" stroke-width="2" stroke-linecap="round" stroke-linejoin="round"/>
<path d="M16.5117 22.0001V17.8001C16.5117 16.1428 17.8544 14.8001 19.5117 14.8001V14.8001C21.1691 14.8001 22.5117 16.1428 22.5117 17.8001V22.0001" stroke="#CBEDEF" stroke-width="2" stroke-linecap="round" stroke-linejoin="round"/>
<path d="M11.7103 10.4507C11.5449 10.4507 11.4103 10.5853 11.4116 10.7507C11.4116 10.916 11.5463 11.0507 11.7116 11.0507C11.8769 11.0507 12.0116 10.916 12.0116 10.7507C12.0116 10.584 11.8769 10.4507 11.7103 10.4507" stroke="#CBEDEF" stroke-width="2" stroke-linecap="round" stroke-linejoin="round"/>
</svg>
