<svg width="32" height="32" viewBox="0 0 32 32" fill="none" xmlns="http://www.w3.org/2000/svg">
<path fill-rule="evenodd" clip-rule="evenodd" d="M14.475 17.5255C12.915 15.9655 11.739 14.2188 10.9577 12.4468C10.7924 12.0722 10.8897 11.6335 11.179 11.3442L12.271 10.2535C13.1657 9.35882 13.1657 8.09349 12.3844 7.31215L10.819 5.74682C9.77769 4.70549 8.08969 4.70549 7.04836 5.74682L6.17902 6.61615C5.19102 7.60415 4.77902 9.02949 5.04569 10.4428C5.70436 13.9268 7.72836 17.7415 10.9937 21.0068C14.259 24.2722 18.0737 26.2962 21.5577 26.9548C22.971 27.2215 24.3964 26.8095 25.3844 25.8215L26.2524 24.9535C27.2937 23.9122 27.2937 22.2242 26.2524 21.1828L24.6884 19.6188C23.907 18.8375 22.6404 18.8375 21.8604 19.6188L20.6564 20.8242C20.367 21.1135 19.9284 21.2108 19.5537 21.0455C17.7817 20.2628 16.035 19.0855 14.475 17.5255Z" stroke="#CBEDEF" stroke-width="1.6" stroke-linecap="round" stroke-linejoin="round"/>
</svg>
