<svg width="32" height="32" viewBox="0 0 32 32" fill="none" xmlns="http://www.w3.org/2000/svg">
<path fill-rule="evenodd" clip-rule="evenodd" d="M24.2724 7.68241C22.0777 5.48641 19.159 4.27575 16.0497 4.27441C9.64035 4.27441 4.42568 9.48641 4.42435 15.8931C4.42168 17.9317 4.95635 19.9357 5.97502 21.7024L4.32568 27.7237L10.4884 26.1077C12.1937 27.0357 14.103 27.5224 16.0444 27.5224H16.0497C22.4564 27.5224 27.671 22.3091 27.6737 15.9024C27.675 12.7984 26.467 9.87975 24.2724 7.68241Z" stroke="#CBEDEF" stroke-width="1.6" stroke-linecap="round" stroke-linejoin="round"/>
<path d="M17.4595 18.0804L18.0008 17.543C18.4981 17.0497 19.2848 16.987 19.8581 17.3897C20.4128 17.779 20.9141 18.1284 21.3808 18.4537C22.1221 18.9684 22.2115 20.0244 21.5728 20.6617L21.0941 21.1404" stroke="#CBEDEF" stroke-width="1.6" stroke-linecap="round" stroke-linejoin="round"/>
<path d="M10.8608 10.9055L11.3395 10.4269C11.9768 9.78952 13.0328 9.87885 13.5475 10.6189C13.8715 11.0855 14.2208 11.5869 14.6115 12.1415C15.0142 12.7149 14.9528 13.5015 14.4582 13.9989L13.9208 14.5402" stroke="#CBEDEF" stroke-width="1.6" stroke-linecap="round" stroke-linejoin="round"/>
<path d="M21.0945 21.1403C19.1198 23.1056 15.8012 21.4363 13.1812 18.8149" stroke="#CBEDEF" stroke-width="1.6" stroke-linecap="round" stroke-linejoin="round"/>
<path d="M13.1841 18.8186C10.5641 16.1973 8.89476 12.8799 10.8601 10.9053" stroke="#CBEDEF" stroke-width="1.6" stroke-linecap="round" stroke-linejoin="round"/>
<path d="M13.9204 14.54C14.3457 15.2107 14.8911 15.8747 15.5071 16.4907L15.5097 16.4934C16.1257 17.1094 16.7897 17.6547 17.4604 18.08" stroke="#CBEDEF" stroke-width="1.6" stroke-linecap="round" stroke-linejoin="round"/>
</svg>
