<svg width="24" height="25" viewBox="0 0 24 25" fill="none" xmlns="http://www.w3.org/2000/svg">
<path fill-rule="evenodd" clip-rule="evenodd" d="M17.96 6.20053C16.314 4.55353 14.125 3.64553 11.793 3.64453C6.986 3.64453 3.075 7.55353 3.074 12.3585C3.072 13.8875 3.473 15.3905 4.237 16.7155L3 21.2315L7.622 20.0195C8.901 20.7155 10.333 21.0805 11.789 21.0805H11.793C16.598 21.0805 20.509 17.1705 20.511 12.3655C20.512 10.0375 19.606 7.84853 17.96 6.20053Z" stroke="#956AA7" stroke-width="1.5" stroke-linecap="round" stroke-linejoin="round"/>
<path d="M13.0947 14.2047L13.5007 13.8017C13.8737 13.4317 14.4637 13.3847 14.8937 13.6867C15.3097 13.9787 15.6857 14.2407 16.0357 14.4847C16.5917 14.8707 16.6587 15.6627 16.1797 16.1407L15.8207 16.4997" stroke="#956AA7" stroke-width="1.5" stroke-linecap="round" stroke-linejoin="round"/>
<path d="M8.14551 8.82367L8.50451 8.46467C8.98251 7.98667 9.77451 8.05367 10.1605 8.60867C10.4035 8.95867 10.6655 9.33467 10.9585 9.75067C11.2605 10.1807 11.2145 10.7707 10.8435 11.1437L10.4405 11.5497" stroke="#956AA7" stroke-width="1.5" stroke-linecap="round" stroke-linejoin="round"/>
<path d="M15.8207 16.4996C14.3397 17.9736 11.8507 16.7216 9.88574 14.7556" stroke="#956AA7" stroke-width="1.5" stroke-linecap="round" stroke-linejoin="round"/>
<path d="M9.88807 14.7587C7.92307 12.7927 6.67107 10.3047 8.14507 8.82373" stroke="#956AA7" stroke-width="1.5" stroke-linecap="round" stroke-linejoin="round"/>
<path d="M10.4404 11.5496C10.7594 12.0526 11.1684 12.5506 11.6304 13.0126L11.6324 13.0146C12.0944 13.4766 12.5924 13.8856 13.0954 14.2046" stroke="#956AA7" stroke-width="1.5" stroke-linecap="round" stroke-linejoin="round"/>
</svg>
